<?xml version="1.0" encoding="utf-8"?>
<!-- Generator: Adobe Illustrator 26.3.1, SVG Export Plug-In . SVG Version: 6.00 Build 0)  -->
<svg version="1.1" id="图层_1" xmlns="http://www.w3.org/2000/svg" xmlns:xlink="http://www.w3.org/1999/xlink" x="0px" y="0px"
	 viewBox="0 0 16 17" style="enable-background:new 0 0 16 17;" xml:space="preserve">
<style type="text/css">
	.st0{fill-rule:evenodd;clip-rule:evenodd;fill:#DFDFDF;}
	.st1{fill-rule:evenodd;clip-rule:evenodd;fill:#FFFFFF;}
	.st2{fill-rule:evenodd;clip-rule:evenodd;fill:#D9908E;}
	.st3{fill-rule:evenodd;clip-rule:evenodd;fill:#FFF0EF;}
	.st4{fill:#FFF0EF;}
</style>
<path class="st0" d="M15,0H0v1v15h1V1h14V0z"/>
<path class="st1" d="M2,1H1v14h1V2h12V1H2z"/>
<path class="st2" d="M16,17h-1H0v-1h15V0h1V17z"/>
<path class="st3" d="M15,1h-1v14H1v1h13h1V1z"/>
<rect x="2" y="2" class="st4" width="12" height="13"/>
<path class="st2" d="M11,6H4v1h1v1h1v1h1v1h1V9h1V8h1V7h1V6z"/>
</svg>
