<?xml version="1.0" encoding="utf-8"?>
<!-- Generator: Adobe Illustrator 26.3.1, SVG Export Plug-In . SVG Version: 6.00 Build 0)  -->
<svg version="1.1" id="图层_1" xmlns="http://www.w3.org/2000/svg" xmlns:xlink="http://www.w3.org/1999/xlink" x="0px" y="0px"
	 viewBox="0 0 11 21" style="enable-background:new 0 0 11 21;" xml:space="preserve">
<style type="text/css">
	.st0{fill-rule:evenodd;clip-rule:evenodd;fill:#FFFFFF;}
	.st1{fill-rule:evenodd;clip-rule:evenodd;fill:#FFF0EF;}
	.st2{fill-rule:evenodd;clip-rule:evenodd;fill:#FFDBD9;}
	.st3{fill-rule:evenodd;clip-rule:evenodd;fill:#D9908E;}
</style>
<path class="st0" d="M0,0v16h2v2h2v2h1v-1H3v-2H1V1h9V0H0z"/>
<path class="st1" d="M1,1v15h1v1h1v1h1v1h2v-1h1v-1h1v-1h1V1H1z"/>
<path class="st2" d="M9,1h1v15H8v2H6v2H5v-1h2v-2h2V1z"/>
<path class="st3" d="M10,0h1v16H9v2H7v2H5v1h1v-2h2v-2h2V0z"/>
</svg>
